<svg width="40" height="40" viewBox="0 0 40 40" fill="none" xmlns="http://www.w3.org/2000/svg">
<path d="M13.3333 30H15.8333V26.6667H19.1667V24.1667H15.8333V20.8333H13.3333V24.1667H10V26.6667H13.3333V30ZM21.6667 28.75H30V26.25H21.6667V28.75ZM21.6667 24.5833H30V22.0833H21.6667V24.5833ZM10.4167 15.3333H18.75V12.8333H10.4167V15.3333ZM8.33333 35C7.41667 35 6.63222 34.6739 5.98 34.0217C5.32778 33.3694 5.00111 32.5844 5 31.6667V8.33333C5 7.41667 5.32667 6.63222 5.98 5.98C6.63333 5.32778 7.41778 5.00111 8.33333 5H31.6667C32.5833 5 33.3683 5.32667 34.0217 5.98C34.675 6.63333 35.0011 7.41778 35 8.33333V31.6667C35 32.5833 34.6739 33.3683 34.0217 34.0217C33.3694 34.675 32.5844 35.0011 31.6667 35H8.33333ZM23.5 18.25L25.8333 15.9167L28.1667 18.25L29.9167 16.5L27.5833 14.0833L29.9167 11.75L28.1667 10L25.8333 12.3333L23.5 10L21.75 11.75L24.0833 14.0833L21.75 16.5L23.5 18.25Z" fill="white"/>
</svg>
