<svg width="64" height="64" viewBox="0 0 64 64" fill="none" xmlns="http://www.w3.org/2000/svg">
<rect width="64" height="64" rx="32" fill="white"/>
<g clip-path="url(#clip0_291_572)">
<path fill-rule="evenodd" clip-rule="evenodd" d="M44.5549 14.7026C36.1977 12.4325 27.4024 12.4325 19.0451 14.7026C16.2397 15.4645 14.097 17.8041 13.5401 20.7135C12.5534 25.8694 12.5534 31.1723 13.5401 36.3282C14.0969 39.2375 16.2396 41.5772 19.0451 42.3398C24.0993 43.7128 29.3344 44.2612 34.5564 43.964C35.2342 43.9256 35.9016 44.154 36.4203 44.6011L42.5751 49.9084C42.6878 50.006 42.8463 50.0274 42.9802 49.9639C43.1141 49.9003 43.2003 49.7629 43.2003 49.6121V43.449C43.2003 43.0056 43.4973 42.6162 43.918 42.5083C44.1307 42.4536 44.343 42.3974 44.5549 42.3398C47.3605 41.5772 49.5032 39.2375 50.0599 36.3282C51.0467 31.1723 51.0467 25.8694 50.0599 20.7135C49.503 17.8041 47.3604 15.4645 44.5549 14.7026ZM39.7167 19.8714C40.2884 19.8714 40.752 20.3447 40.752 20.9286V24.6285C40.752 25.2124 40.2884 25.6857 39.7167 25.6857H36.0933C35.5215 25.6857 35.058 26.1591 35.058 26.7428V36.7857C35.058 37.3696 34.5945 37.8428 34.0227 37.8428H29.8817C29.3099 37.8428 28.8464 37.3696 28.8464 36.7857V26.7428C28.8464 26.1591 28.383 25.6857 27.8113 25.6857H24.1879C23.6161 25.6857 23.1526 25.2124 23.1526 24.6285V20.9286C23.1526 20.3447 23.6161 19.8714 24.1879 19.8714H39.7167Z" fill="#FC3234"/>
</g>
<defs>
<clipPath id="clip0_291_572">
<rect width="38" height="37" fill="white" transform="translate(12.8 13)"/>
</clipPath>
</defs>
</svg>
