<svg width="40" height="40" viewBox="0 0 40 40" fill="none" xmlns="http://www.w3.org/2000/svg">
<path d="M11.8749 6.25H28.1249C29.4799 6.25 30.5716 6.25 31.4582 6.32167C32.3682 6.39667 33.1682 6.555 33.9082 6.93167C35.085 7.53062 36.0419 8.4869 36.6416 9.66333C37.0182 10.4033 37.1749 11.2033 37.2499 12.1133C37.261 12.2467 37.2699 12.3839 37.2766 12.525C37.3266 12.7075 37.3346 12.899 37.2999 13.085C37.3216 13.7683 37.3216 14.55 37.3216 15.4467V24.5533C37.3216 25.9083 37.3216 27.0017 37.2499 27.8867C37.1749 28.7967 37.0166 29.5967 36.6399 30.3367C36.0409 31.5135 35.0847 32.4703 33.9082 33.07C33.1682 33.4467 32.3682 33.6033 31.4582 33.6783C30.5716 33.75 29.4799 33.75 28.1249 33.75H11.8749C10.5199 33.75 9.42822 33.75 8.54156 33.6783C7.63156 33.6033 6.83156 33.445 6.09156 33.0683C4.91538 32.4691 3.95913 31.5128 3.35989 30.3367C2.98322 29.5967 2.82656 28.7967 2.75156 27.8867C2.67822 27.0017 2.67822 25.9083 2.67822 24.5533V15.4467C2.67822 14.55 2.67822 13.7683 2.69989 13.085C2.66518 12.899 2.67316 12.7075 2.72322 12.525C2.731 12.3828 2.74044 12.2461 2.75156 12.115C2.82489 11.2033 2.98322 10.4033 3.35989 9.66333C3.95884 8.48653 4.91512 7.52967 6.09156 6.93C6.83156 6.55333 7.63156 6.39667 8.54156 6.32167C9.42822 6.25 10.5199 6.25 11.8749 6.25ZM34.7499 12.235C34.6866 11.53 34.5749 11.115 34.4132 10.7983C34.054 10.0924 33.4805 9.51825 32.7749 9.15833C32.4449 8.99167 32.0099 8.875 31.2532 8.81333C30.4832 8.75167 29.4916 8.75 28.0716 8.75H11.9282C10.5082 8.75 9.51822 8.75 8.74489 8.81333C7.98989 8.875 7.55489 8.99167 7.22656 9.15833C6.52032 9.51797 5.94619 10.0921 5.58656 10.7983C5.42656 11.115 5.31322 11.53 5.24989 12.235L16.2566 19.5733C17.9399 20.6967 18.5282 21.065 19.1266 21.2083C19.7007 21.3458 20.2991 21.3458 20.8732 21.2083C21.4732 21.065 22.0582 20.6967 23.7449 19.5733L34.7499 12.235Z" fill="white"/>
</svg>
