<svg width="64" height="64" viewBox="0 0 64 64" fill="none" xmlns="http://www.w3.org/2000/svg">
<rect width="64" height="64" rx="32" fill="white"/>
<path d="M45.3332 34.9166C45.3332 34.5851 45.2015 34.2671 44.9671 34.0327C44.7326 33.7983 44.4147 33.6666 44.0832 33.6666H39.0832C38.7516 33.6666 38.4337 33.7983 38.1993 34.0327C37.9649 34.2671 37.8332 34.5851 37.8332 34.9166V46.1666H35.3332V19.0833C35.3332 17.8699 35.3298 17.0833 35.2532 16.5066C35.1798 15.9649 35.0615 15.7949 34.9665 15.6999C34.8715 15.6049 34.7015 15.4866 34.1598 15.4133C33.5815 15.3366 32.7965 15.3333 31.5832 15.3333C30.3698 15.3333 29.5832 15.3366 29.0065 15.4133C28.4648 15.4866 28.2948 15.6049 28.1998 15.6999C28.1048 15.7949 27.9865 15.9649 27.9132 16.5066C27.8365 17.0849 27.8332 17.8699 27.8332 19.0833V46.1666H25.3332V26.5833C25.3332 26.2517 25.2015 25.9338 24.9671 25.6994C24.7326 25.4649 24.4147 25.3333 24.0832 25.3333H19.0832C18.7516 25.3333 18.4337 25.4649 18.1993 25.6994C17.9649 25.9338 17.8332 26.2517 17.8332 26.5833V46.1666H14.9165C14.585 46.1666 14.267 46.2983 14.0326 46.5327C13.7982 46.7671 13.6665 47.0851 13.6665 47.4166C13.6665 47.7481 13.7982 48.066 14.0326 48.3005C14.267 48.5349 14.585 48.6666 14.9165 48.6666H48.2498C48.5814 48.6666 48.8993 48.5349 49.1337 48.3005C49.3681 48.066 49.4998 47.7481 49.4998 47.4166C49.4998 47.0851 49.3681 46.7671 49.1337 46.5327C48.8993 46.2983 48.5814 46.1666 48.2498 46.1666H45.3332V34.9166Z" fill="#003988"/>
</svg>
