<svg width="64" height="64" viewBox="0 0 64 64" fill="none" xmlns="http://www.w3.org/2000/svg">
<rect width="64" height="64" rx="32" fill="white"/>
<path d="M21.1666 47C20.9299 47 20.7322 46.92 20.5733 46.76C20.4144 46.6 20.3344 46.4017 20.3333 46.165C20.3322 45.9283 20.4122 45.7306 20.5733 45.5717C20.7344 45.4128 20.9322 45.3333 21.1666 45.3333H23.3466V40.3333C23.3466 38.2756 23.9772 36.4506 25.2383 34.8583C26.4994 33.2661 28.116 32.3133 30.0883 32C28.1172 31.6667 26.5005 30.7089 25.2383 29.1267C23.976 27.5444 23.3455 25.7244 23.3466 23.6667V18.6667H21.1666C20.9299 18.6667 20.7322 18.5867 20.5733 18.4267C20.4144 18.2667 20.3344 18.0683 20.3333 17.8317C20.3322 17.595 20.4122 17.3972 20.5733 17.2383C20.7344 17.0794 20.9322 17 21.1666 17H42.8333C43.0699 17 43.2677 17.08 43.4266 17.24C43.5855 17.4 43.6655 17.5983 43.6666 17.835C43.6677 18.0717 43.5877 18.2694 43.4266 18.4283C43.2655 18.5872 43.0677 18.6667 42.8333 18.6667H40.6533V23.6667C40.6533 25.7244 40.0227 27.5444 38.7616 29.1267C37.5005 30.7089 35.8838 31.6667 33.9116 32C35.8827 32.3111 37.4994 33.2639 38.7616 34.8583C40.0227 36.4506 40.6533 38.2756 40.6533 40.3333V45.3333H42.8333C43.0699 45.3333 43.2677 45.4133 43.4266 45.5733C43.5855 45.7333 43.6655 45.9317 43.6666 46.1683C43.6677 46.405 43.5877 46.6028 43.4266 46.7617C43.2655 46.9206 43.0677 47 42.8333 47H21.1666Z" fill="#003988"/>
</svg>
