<svg width="64" height="64" viewBox="0 0 64 64" fill="none" xmlns="http://www.w3.org/2000/svg">
<rect width="64" height="64" rx="32" fill="white"/>
<path d="M42.0002 18.6667C42.2511 18.6668 42.4988 18.7234 42.7247 18.8325C42.9507 18.9416 43.1491 19.1003 43.3052 19.2967L43.4285 19.4767L48.4285 27.8101C48.5923 28.0833 48.6743 28.3978 48.6648 28.7162C48.6554 29.0346 48.5549 29.3437 48.3752 29.6067L48.2419 29.7784L34.0252 45.6667C33.7612 45.9361 33.4461 46.15 33.0984 46.2959C32.7507 46.4419 32.3773 46.517 32.0002 46.5167C31.3335 46.5167 30.6919 46.2834 30.1502 45.8217L29.9252 45.6117L15.7585 29.7784C15.5454 29.5406 15.4051 29.2466 15.3543 28.9313C15.3034 28.616 15.3442 28.2928 15.4719 28.0001L15.5719 27.8084L20.5935 19.4384L20.7002 19.2884C20.7767 19.1937 20.8633 19.1076 20.9585 19.0317L21.1069 18.9251L21.2535 18.8417L21.3369 18.8034L21.4369 18.7617L21.6185 18.7084L21.8052 18.6751L22.0002 18.6667H42.0002ZM27.1902 25.2384C26.8113 25.0115 26.3578 24.9443 25.9294 25.0515C25.501 25.1586 25.1326 25.4315 24.9052 25.8101L23.9052 27.4767L23.8052 27.6701C23.6776 27.9642 23.6376 28.2889 23.6899 28.6052C23.7423 28.9215 23.8847 29.216 24.1002 29.4534L27.4335 33.1201L27.5835 33.2667C27.892 33.5307 28.2863 33.673 28.6923 33.6669C29.0983 33.6608 29.4881 33.5066 29.7885 33.2334L29.9335 33.0834C30.1975 32.7749 30.3398 32.3806 30.3337 31.9746C30.3275 31.5686 30.1734 31.1788 29.9002 30.8784L27.3985 28.1284L27.7619 27.5234L27.8535 27.3517C28.021 26.9794 28.046 26.5585 27.9237 26.1689C27.8014 25.7794 27.5404 25.4483 27.1902 25.2384Z" fill="#003988"/>
</svg>
