<svg width="64" height="64" viewBox="0 0 64 64" fill="none" xmlns="http://www.w3.org/2000/svg">
<rect width="64" height="64" rx="32" fill="white"/>
<path fill-rule="evenodd" clip-rule="evenodd" d="M24.0835 18.6667C24.0835 18.3352 24.2152 18.0173 24.4496 17.7829C24.684 17.5484 25.002 17.4167 25.3335 17.4167H38.6668C38.9983 17.4167 39.3163 17.5484 39.5507 17.7829C39.7851 18.0173 39.9168 18.3352 39.9168 18.6667C39.9168 18.9983 39.7851 19.3162 39.5507 19.5506C39.3163 19.7851 38.9983 19.9167 38.6668 19.9167H25.3335C25.002 19.9167 24.684 19.7851 24.4496 19.5506C24.2152 19.3162 24.0835 18.9983 24.0835 18.6667Z" fill="#003988"/>
<path d="M27 18.25C27.3315 18.25 27.6495 18.3817 27.8839 18.6161C28.1183 18.8505 28.25 19.1685 28.25 19.5V29.1C28.2501 30.1943 27.8588 31.2525 27.1467 32.0833L24.0067 35.7467H39.9933L36.8533 32.0833C36.1412 31.2525 35.7499 30.1943 35.75 29.1V19.5C35.75 19.1685 35.8817 18.8505 36.1161 18.6161C36.3505 18.3817 36.6685 18.25 37 18.25C37.3315 18.25 37.6495 18.3817 37.8839 18.6161C38.1183 18.8505 38.25 19.1685 38.25 19.5V29.1C38.25 29.5983 38.4283 30.0783 38.75 30.4567L47.1467 40.25C47.8588 41.0808 48.2501 42.1391 48.25 43.2333V43.6667C48.25 44.8822 47.7671 46.048 46.9076 46.9076C46.048 47.7671 44.8822 48.25 43.6667 48.25H20.3333C19.1178 48.25 17.952 47.7671 17.0924 46.9076C16.2329 46.048 15.75 44.8822 15.75 43.6667V43.2333C15.75 42.1383 16.1417 41.0817 16.8533 40.25L25.2483 30.4567C25.5717 30.0783 25.75 29.5983 25.75 29.1V19.5C25.75 19.1685 25.8817 18.8505 26.1161 18.6161C26.3505 18.3817 26.6685 18.25 27 18.25Z" fill="#003988"/>
<path fill-rule="evenodd" clip-rule="evenodd" d="M32.8534 26.07C33.0997 26.2917 33.248 26.6022 33.2655 26.9331C33.283 27.2641 33.1683 27.5885 32.9467 27.835L32.93 27.8516C32.7065 28.091 32.398 28.2332 32.0708 28.2475C31.7436 28.2617 31.4238 28.147 31.1803 27.928C30.9368 27.7089 30.789 27.4031 30.7687 27.0762C30.7484 26.7493 30.8572 26.4275 31.0717 26.18L31.0884 26.1633C31.3101 25.9169 31.6205 25.7687 31.9515 25.7512C32.2825 25.7337 32.6069 25.8483 32.8534 26.07ZM31.1867 14.4033C31.4331 14.625 31.5813 14.9355 31.5988 15.2665C31.6163 15.5975 31.5016 15.9218 31.28 16.1683L31.2634 16.185C31.0399 16.4244 30.7313 16.5665 30.4041 16.5808C30.0769 16.5951 29.7571 16.4804 29.5136 16.2613C29.2701 16.0423 29.1223 15.7364 29.102 15.4095C29.0817 15.0826 29.1905 14.7608 29.405 14.5133L29.4217 14.4966C29.6434 14.2503 29.9539 14.102 30.2849 14.0845C30.6158 14.067 30.9402 14.1817 31.1867 14.4033Z" fill="#003988"/>
</svg>
