<svg width="64" height="64" viewBox="0 0 64 64" fill="none" xmlns="http://www.w3.org/2000/svg">
<path d="M42.6666 11.333C42.6662 10.0808 42.274 8.86 41.545 7.84183C40.816 6.82365 39.7867 6.05909 38.6014 5.65528C37.416 5.25147 36.134 5.22866 34.9351 5.59005C33.7361 5.95143 32.6802 6.67889 31.9155 7.67049C31.1507 8.66209 30.7154 9.86812 30.6704 11.1196C30.6255 12.371 30.9733 13.6051 31.665 14.649C32.3567 15.6929 33.3577 16.4942 34.5277 16.9406C35.6977 17.387 36.978 17.4561 38.1893 17.1383C37.929 18.6127 37.5217 20.0573 36.9732 21.4503C35.9119 24.1277 34.3866 26.381 32.4559 28.7303C32.285 28.9328 32.156 29.1671 32.0764 29.4198C31.9968 29.6725 31.9682 29.9385 31.9923 30.2023C32.0163 30.4662 32.0926 30.7226 32.2166 30.9567C32.3406 31.1908 32.5098 31.398 32.7146 31.5661C32.9193 31.7343 33.1554 31.8601 33.4091 31.9363C33.6629 32.0124 33.9292 32.0374 34.1927 32.0097C34.4562 31.9821 34.7115 31.9024 34.944 31.7752C35.1764 31.6481 35.3812 31.476 35.5466 31.269C37.6159 28.749 39.4212 26.133 40.6932 22.925C41.9679 19.7117 42.6666 16.005 42.6666 11.333ZM45.1279 15.613C44.8681 18.4556 44.2092 21.2475 43.1706 23.9063C41.7572 27.4717 39.7679 30.3303 37.6053 32.9623C36.8154 33.9052 35.6852 34.4981 34.4604 34.6121C33.2357 34.7261 32.0155 34.3519 31.0652 33.571C30.1149 32.7901 29.5113 31.6656 29.3857 30.442C29.2601 29.2184 29.6227 27.9947 30.3946 27.037C32.2319 24.7997 33.5759 22.789 34.4959 20.469C34.5848 20.2431 34.6693 20.0155 34.7493 19.7863C33.5169 19.5069 32.3606 18.9613 31.3613 18.1878C30.362 17.4144 29.544 16.4317 28.9645 15.3088C28.385 14.1859 28.058 12.9498 28.0066 11.6872C27.9551 10.4246 28.1804 9.16604 28.6666 7.99967H13.9999C11.7014 7.99967 9.49697 8.91277 7.87166 10.5381C6.24634 12.1634 5.33325 14.3678 5.33325 16.6663V39.333C5.33325 41.6315 6.24634 43.8359 7.87166 45.4613C9.49697 47.0866 11.7014 47.9997 13.9999 47.9997H15.9999V55.333C15.9999 58.0797 19.1359 59.6477 21.3333 57.9997L34.6666 47.9997H49.9999C51.138 47.9997 52.265 47.7755 53.3165 47.34C54.368 46.9044 55.3234 46.266 56.1282 45.4613C56.9329 44.6565 57.5713 43.7011 58.0069 42.6496C58.4424 41.5981 58.6666 40.4711 58.6666 39.333V25.0983C57.3039 28.1197 55.5199 30.629 53.6052 32.9623C52.8154 33.9052 51.6852 34.4981 50.4604 34.6121C49.2357 34.7261 48.0155 34.3519 47.0652 33.571C46.1149 32.7901 45.5113 31.6656 45.3857 30.442C45.2601 29.2184 45.6227 27.9947 46.3946 27.037C48.2319 24.7997 49.5759 22.789 50.4959 20.469C50.5848 20.2431 50.6693 20.0155 50.7492 19.7863C49.5742 19.5184 48.4676 19.009 47.4999 18.2906C46.5322 17.5721 45.7244 16.6603 45.1279 15.613ZM52.6666 5.33301C54.2579 5.33301 55.784 5.96515 56.9092 7.09037C58.0344 8.21558 58.6666 9.74171 58.6666 11.333C58.6666 16.005 57.9679 19.7117 56.6932 22.925C55.4212 26.133 53.6159 28.749 51.5466 31.2717C51.3797 31.4748 51.1745 31.643 50.9426 31.7668C50.7107 31.8906 50.4567 31.9675 50.1951 31.9932C49.9335 32.0188 49.6694 31.9926 49.4179 31.9162C49.1663 31.8398 48.9324 31.7145 48.7293 31.5477C48.5261 31.3808 48.3579 31.1756 48.2341 30.9437C48.1103 30.7118 48.0334 30.4578 48.0078 30.1962C47.9821 29.9346 48.0083 29.6705 48.0847 29.4189C48.1612 29.1674 48.2864 28.9335 48.4533 28.7303C50.3839 26.381 51.9119 24.1277 52.9732 21.4503C53.5217 20.0573 53.929 18.6127 54.1892 17.1383C53.3015 17.3702 52.3725 17.3955 51.4735 17.2124C50.5745 17.0293 49.7293 16.6427 49.003 16.0821C48.2766 15.5216 47.6884 14.8021 47.2834 13.9788C46.8784 13.1556 46.6674 12.2505 46.6666 11.333C46.6666 9.74171 47.2987 8.21558 48.4239 7.09037C49.5492 5.96515 51.0753 5.33301 52.6666 5.33301Z" fill="#006BFF"/>
</svg>
