<svg width="64" height="64" viewBox="0 0 64 64" fill="none" xmlns="http://www.w3.org/2000/svg">
<rect width="64" height="64" rx="32" fill="#0077FF"/>
<path d="M33.5719 43.1998C21.5454 43.1998 14.6857 34.7914 14.3999 20.7998H20.4241C20.622 31.0693 25.0632 35.4192 28.581 36.3161V20.7998H34.2535V29.6567C37.7273 29.2755 41.377 25.2394 42.6083 20.7998H48.2807C47.8168 23.1023 46.8919 25.2824 45.5641 27.2038C44.2362 29.1252 42.5339 30.7464 40.5636 31.9662C42.7629 33.0807 44.7055 34.6582 46.2631 36.5946C47.8208 38.531 48.958 40.7822 49.5999 43.1998H43.3558C42.7796 41.1 41.6085 39.2203 39.9893 37.7963C38.3701 36.3724 36.3748 35.4674 34.2535 35.195V43.1998H33.5719Z" fill="white"/>
</svg>
