<svg width="32" height="32" viewBox="0 0 32 32" fill="none" xmlns="http://www.w3.org/2000/svg">
<path d="M10.6666 4C11.3333 4 13.9999 10 13.9999 10.6667C13.9999 12 11.9999 13.3333 11.3333 14.6667C10.6666 16 11.9999 17.3333 13.3333 18.6667C13.8533 19.1867 15.9999 21.3333 17.3333 20.6667C18.6666 20 19.9999 18 21.3333 18C21.9999 18 27.9999 20.6667 27.9999 21.3333C27.9999 24 25.9999 26 23.9999 26.6667C21.9999 27.3333 20.6666 27.3333 17.9999 26.6667C15.3333 26 13.3333 25.3333 9.99992 22C6.66659 18.6667 5.99992 16.6667 5.33325 14C4.66659 11.3333 4.66659 10 5.33325 8C5.99992 6 7.99992 4 10.6666 4Z" fill="white" stroke="white" stroke-width="2.66667" stroke-linecap="round" stroke-linejoin="round"/>
</svg>
