<svg width="1920" height="65" viewBox="0 0 1920 65" fill="none" xmlns="http://www.w3.org/2000/svg">
<path opacity="0.2" d="M-1 11.2726L20.1463 47.9906C21.9312 51.0899 25.2355 53 28.812 53H501.973C503.732 53 505.46 52.536 506.982 51.6548L545.891 29.1349C547.413 28.2538 549.141 27.7898 550.9 27.7898H701.882C703.862 27.7898 705.795 27.2011 707.446 26.1086C721 17.1394 744.967 2 749.477 2C754.253 2 1028.37 2 1167.4 2C1169.16 2 1170.83 2.46399 1172.35 3.34515L1225.78 34.2685C1227.3 35.1496 1229.03 35.6136 1230.78 35.6136H1870.82C1872.58 35.6136 1874.3 36.0757 1875.82 36.9534L1921.5 63.3265" stroke="url(#paint0_linear_34_6838)" stroke-width="3"/>
<defs>
<linearGradient id="paint0_linear_34_6838" x1="-1" y1="32.6632" x2="1921.5" y2="32.6632" gradientUnits="userSpaceOnUse">
<stop stop-color="#636363"/>
<stop offset="1" stop-color="#878787"/>
</linearGradient>
</defs>
</svg>
