<svg width="1402" height="42" viewBox="0 0 1402 42" fill="none" xmlns="http://www.w3.org/2000/svg">
<path opacity="0.2" d="M1400 3.5C1400.83 3.5 1401.5 2.82843 1401.5 2C1401.5 1.17157 1400.83 0.5 1400 0.5V3.5ZM571.492 3.65724L570.665 2.40583L571.492 3.65724ZM519.008 38.3428L519.835 39.5942L519.008 38.3428ZM-1 2L-2.14737 2.9662L26.8559 37.4076L28.0032 36.4414L29.1506 35.4752L0.147367 1.0338L-1 2ZM35.6524 40V41.5H513.494V40V38.5H35.6524V40ZM519.008 38.3428L519.835 39.5942L572.319 4.90866L571.492 3.65724L570.665 2.40583L518.181 37.0913L519.008 38.3428ZM577.006 2V3.5H1400V2V0.5H577.006V2ZM571.492 3.65724L572.319 4.90866C573.71 3.98986 575.339 3.5 577.006 3.5V2V0.5C574.751 0.5 572.546 1.16275 570.665 2.40583L571.492 3.65724ZM513.494 40V41.5C515.749 41.5 517.954 40.8373 519.835 39.5942L519.008 38.3428L518.181 37.0913C516.79 38.0101 515.161 38.5 513.494 38.5V40ZM28.0032 36.4414L26.8559 37.4076C29.0409 40.0023 32.2601 41.5 35.6524 41.5V40V38.5C33.1451 38.5 30.7657 37.393 29.1506 35.4752L28.0032 36.4414Z" fill="url(#paint0_linear_25_255)"/>
<defs>
<linearGradient id="paint0_linear_25_255" x1="-1" y1="21" x2="1400" y2="21" gradientUnits="userSpaceOnUse">
<stop stop-color="#636363"/>
<stop offset="1" stop-color="#878787"/>
</linearGradient>
</defs>
</svg>
