<svg width="185" height="170" viewBox="0 0 185 170" fill="none" xmlns="http://www.w3.org/2000/svg">
<path d="M92.2527 2.55273H92.2546C112.603 2.53711 123.357 11.8139 128.12 16.1562C148.697 35.8695 149.358 68.4803 129.594 89.0059C109.746 109.618 75.9253 111.437 55.4099 91.7949L55.3513 91.7383L55.2878 91.6855L54.863 91.3213C50.2949 87.34 40.289 76.3854 39.4919 57.2012V2.53613L92.2527 2.55273Z" fill="white" stroke="white" stroke-width="5.07238"/>
<path fill-rule="evenodd" clip-rule="evenodd" d="M80.4206 68.6621L97.3832 69.0047L97.5122 70.4067L65.9734 76.887L90.6142 20.3047L115.137 76.6262H105.303L90.7017 42.3867L80.4206 68.6621Z" fill="#006BFF"/>
<path d="M32.3473 163.169H22.3764C22.1059 162.319 21.9513 161.372 21.9127 160.328C19.1688 162.84 15.8645 164.096 11.9998 164.096C8.75347 164.096 6.18347 163.285 4.28978 161.662C2.43474 160 1.50722 157.739 1.50722 154.879C1.50722 153.449 1.75842 152.193 2.26083 151.111C2.76324 150.029 3.34294 149.198 3.99993 148.618C4.65692 148 5.62309 147.459 6.89843 146.995C8.17377 146.532 9.25588 146.222 10.1448 146.068C11.0336 145.875 12.2703 145.662 13.8548 145.43C17.6036 144.85 19.7098 144.464 20.1736 144.271C21.217 143.846 21.7388 143.034 21.7388 141.836C21.7388 139.71 20.2122 138.648 17.1591 138.648C15.5746 138.648 14.4152 138.899 13.6809 139.401C12.9853 139.904 12.4636 140.908 12.1157 142.416H2.84053C3.45888 135.73 8.27039 132.387 17.2751 132.387C22.1059 132.387 25.7773 133.295 28.2894 135.111C29.4101 135.923 30.1637 136.87 30.5502 137.952C30.9753 139.034 31.1879 140.58 31.1879 142.59V154.589C31.1879 158.531 31.5743 161.391 32.3473 163.169ZM21.7388 149.14C21.275 149.372 20.7339 149.585 20.1156 149.778C19.4973 149.971 18.9948 150.106 18.6084 150.184C18.2606 150.261 17.6615 150.396 16.8113 150.589C15.9997 150.744 15.478 150.841 15.2461 150.879C12.8114 151.382 11.594 152.599 11.594 154.531C11.594 155.652 11.9418 156.522 12.6375 157.14C13.3331 157.758 14.2799 158.068 15.478 158.068C17.2171 158.068 18.6857 157.565 19.8837 156.56C21.1204 155.517 21.7388 154.068 21.7388 152.213V149.14ZM59.1163 132.851V141.662C57.5704 141.276 56.2758 141.082 55.2323 141.082C50.2855 141.082 47.8121 143.904 47.8121 149.546V163.169H38.0152V133.256H47.4063L47.3484 138.358C48.3918 136.387 49.6285 134.938 51.0585 134.01C52.527 133.044 54.3627 132.561 56.5656 132.561C57.4158 132.561 58.2661 132.657 59.1163 132.851ZM72.0889 121.894V136.677C74.6396 133.894 77.5767 132.503 80.9003 132.503C84.6877 132.503 87.8181 133.991 90.2915 136.966C92.4943 139.71 93.5958 143.363 93.5958 147.923C93.5958 152.754 92.3591 156.638 89.8857 159.575C87.4509 162.473 84.2239 163.942 80.2047 163.981C78.2337 163.981 76.6299 163.652 75.3932 162.995C74.1951 162.299 72.9584 161.179 71.6831 159.633V163.169H62.292V121.894H72.0889ZM77.7699 140.039C75.9536 140.039 74.5043 140.754 73.4222 142.184C72.3401 143.614 71.799 145.527 71.799 147.923C71.799 150.474 72.3208 152.483 73.3642 153.952C74.4463 155.382 75.9342 156.097 77.8279 156.097C79.6443 156.097 81.0742 155.362 82.1177 153.894C83.1612 152.425 83.6829 150.435 83.6829 147.923C83.6829 145.527 83.1418 143.614 82.0597 142.184C80.9776 140.754 79.5477 140.039 77.7699 140.039ZM109.067 121.894V129.314H99.2121V121.894H109.067ZM109.067 133.256V163.169H99.2121V133.256H109.067ZM127.148 133.662V144.097H116.655V133.662H127.148ZM127.148 152.734V163.169H116.655V152.734H127.148ZM143.809 133.256V137.198C146.089 134.029 149.142 132.445 152.968 132.445C157.103 132.445 159.924 134.049 161.432 137.256C162.939 135.556 164.369 134.339 165.721 133.604C167.074 132.831 168.813 132.445 170.939 132.445C174.34 132.445 176.948 133.43 178.765 135.401C180.581 137.372 181.489 140.058 181.489 143.459V163.169H171.576V145.778C171.576 142.145 170.204 140.329 167.46 140.329C165.992 140.329 164.852 140.812 164.04 141.778C163.229 142.706 162.823 143.981 162.823 145.604V163.169H152.968V145.43C152.968 143.807 152.697 142.532 152.156 141.604C151.615 140.677 150.572 140.213 149.026 140.213C147.364 140.213 146.147 140.773 145.374 141.894C144.601 142.976 144.214 144.406 144.214 146.184V163.169H134.36V133.256H143.809Z" fill="white"/>
</svg>
