<svg width="180" height="64" viewBox="0 0 180 64" fill="none" xmlns="http://www.w3.org/2000/svg">
<path d="M32.5332 1.50049H32.5342C44.5077 1.49129 50.8343 6.9511 53.6357 9.50537C65.7407 21.1035 66.1294 40.2883 54.502 52.3638C42.8248 64.4907 22.9273 65.5603 10.8574 54.0044L10.8223 53.9712L10.7852 53.9399C8.23292 51.7943 1.97499 45.3013 1.49219 33.6479V1.49072L32.5332 1.50049Z" fill="white" stroke="white" stroke-width="2.98425"/>
<path fill-rule="evenodd" clip-rule="evenodd" d="M25.5701 40.3973L35.5498 40.5989L35.6257 41.4237L17.0703 45.2363L31.5673 11.947L45.9952 45.0829H40.2093L31.6188 24.9386L25.5701 40.3973Z" fill="#006BFF"/>
<path d="M90.3205 33.6731H84.4544C84.2952 33.1729 84.2042 32.6158 84.1815 32.0019C82.5672 33.4798 80.6231 34.2188 78.3494 34.2188C76.4395 34.2188 74.9275 33.7413 73.8134 32.7863C72.722 31.8087 72.1763 30.4785 72.1763 28.796C72.1763 27.9547 72.3241 27.2157 72.6197 26.5791C72.9153 25.9425 73.2563 25.4536 73.6428 25.1126C74.0294 24.7488 74.5978 24.4304 75.3481 24.1576C76.0985 23.8848 76.7351 23.7029 77.258 23.6119C77.781 23.4982 78.5086 23.3732 79.4408 23.2367C81.6463 22.8957 82.8855 22.6683 83.1583 22.5546C83.7722 22.3045 84.0792 21.827 84.0792 21.1222C84.0792 19.8717 83.1811 19.2464 81.3848 19.2464C80.4526 19.2464 79.7705 19.3942 79.3385 19.6898C78.9292 19.9853 78.6223 20.5765 78.4176 21.4633H72.9607C73.3245 17.5297 76.1553 15.563 81.4531 15.563C84.2952 15.563 86.4552 16.0973 87.9331 17.1659C88.5925 17.6434 89.0359 18.2005 89.2633 18.8371C89.5134 19.4738 89.6384 20.3832 89.6384 21.5656V28.6255C89.6384 30.9446 89.8658 32.6272 90.3205 33.6731ZM84.0792 25.4195C83.8063 25.5559 83.488 25.681 83.1242 25.7947C82.7604 25.9084 82.4649 25.9879 82.2375 26.0334C82.0328 26.0789 81.6804 26.1585 81.1802 26.2722C80.7027 26.3631 80.3958 26.4199 80.2594 26.4427C78.8269 26.7383 78.1107 27.4545 78.1107 28.5913C78.1107 29.2507 78.3153 29.7623 78.7246 30.1261C79.1339 30.4899 79.6909 30.6718 80.3958 30.6718C81.4189 30.6718 82.283 30.3762 82.9878 29.785C83.7154 29.1711 84.0792 28.3185 84.0792 27.2271V25.4195ZM106.07 15.8358V21.0199C105.16 20.7925 104.398 20.6788 103.785 20.6788C100.874 20.6788 99.419 22.3386 99.419 25.6583V33.6731H93.6552V16.0746H99.1803L99.1462 19.0759C99.7601 17.9163 100.488 17.0636 101.329 16.5179C102.193 15.9495 103.273 15.6653 104.569 15.6653C105.069 15.6653 105.569 15.7221 106.07 15.8358ZM113.702 9.38983V18.0868C115.203 16.4497 116.931 15.6312 118.886 15.6312C121.114 15.6312 122.956 16.5066 124.411 18.2573C125.707 19.8717 126.355 22.0203 126.355 24.7033C126.355 27.5454 125.627 29.8305 124.172 31.5585C122.74 33.2638 120.841 34.1278 118.477 34.1506C117.317 34.1506 116.373 33.9573 115.646 33.5708C114.941 33.1615 114.213 32.5021 113.463 31.5926V33.6731H107.938V9.38983H113.702ZM117.044 20.0649C115.976 20.0649 115.123 20.4856 114.486 21.3268C113.85 22.1681 113.531 23.2936 113.531 24.7033C113.531 26.2039 113.838 27.3863 114.452 28.2503C115.089 29.0916 115.964 29.5122 117.078 29.5122C118.147 29.5122 118.988 29.0802 119.602 28.2162C120.216 27.3522 120.523 26.1812 120.523 24.7033C120.523 23.2936 120.205 22.1681 119.568 21.3268C118.931 20.4856 118.09 20.0649 117.044 20.0649ZM135.457 9.38983V13.7554H129.659V9.38983H135.457ZM135.457 16.0746V33.6731H129.659V16.0746H135.457ZM146.095 16.3133V22.4523H139.922V16.3133H146.095ZM146.095 27.5341V33.6731H139.922V27.5341H146.095ZM155.897 16.0746V18.3937C157.239 16.5293 159.035 15.5971 161.286 15.5971C163.719 15.5971 165.378 16.5407 166.265 18.4278C167.152 17.4274 167.993 16.7112 168.789 16.2792C169.585 15.8244 170.608 15.5971 171.858 15.5971C173.859 15.5971 175.394 16.1769 176.463 17.3365C177.531 18.4961 178.066 20.0763 178.066 22.0772V33.6731H172.234V23.4414C172.234 21.3041 171.426 20.2354 169.812 20.2354C168.948 20.2354 168.277 20.5197 167.8 21.0881C167.322 21.6338 167.084 22.3841 167.084 23.3391V33.6731H161.286V23.2367C161.286 22.2818 161.127 21.5315 160.808 20.9858C160.49 20.4401 159.876 20.1672 158.967 20.1672C157.989 20.1672 157.273 20.4969 156.818 21.1563C156.363 21.7929 156.136 22.6342 156.136 23.6801V33.6731H150.338V16.0746H155.897Z" fill="white"/>
<path d="M79.6226 42.4229V53.3503H77.9804V52.2607C77.479 53.1304 76.6349 53.5652 75.4481 53.5652C74.3328 53.5652 73.4426 53.1866 72.7776 52.4295C72.1227 51.6723 71.7953 50.6543 71.7953 49.3753C71.7953 48.1066 72.1176 47.0988 72.7622 46.3519C73.4171 45.5947 74.2919 45.2161 75.3867 45.2161C76.5019 45.2161 77.3409 45.6305 77.9037 46.4593V42.4229H79.6226ZM75.709 46.6281C75.0439 46.6281 74.517 46.8737 74.1282 47.3648C73.7496 47.8457 73.5603 48.5056 73.5603 49.3446C73.5603 50.2143 73.7547 50.8998 74.1435 51.4012C74.5425 51.9026 75.0848 52.1532 75.7704 52.1532C76.4559 52.1532 76.9879 51.9077 77.3665 51.4165C77.7553 50.9254 77.9497 50.245 77.9497 49.3753C77.9497 48.5056 77.7502 47.8303 77.3512 47.3494C76.9623 46.8686 76.415 46.6281 75.709 46.6281ZM83.2957 42.3768V44.0958H81.5461V42.3768H83.2957ZM83.2957 45.431V53.3503H81.5461V45.431H83.2957ZM92.4614 45.431V52.4295C92.4614 53.7903 92.1698 54.7981 91.5866 55.453C91.0136 56.1078 90.0365 56.4352 88.6552 56.4352C86.4861 56.4352 85.3043 55.632 85.1099 54.0256H86.8596C87.0233 54.8135 87.6372 55.2074 88.7013 55.2074C89.4277 55.2074 89.9547 55.0232 90.2821 54.6549C90.6197 54.2865 90.7885 53.6931 90.7885 52.8746V51.9384C90.2156 52.8285 89.3766 53.2736 88.2715 53.2736C87.2177 53.2736 86.3787 52.9206 85.7545 52.2146C85.1406 51.4984 84.8337 50.5366 84.8337 49.3293C84.8337 48.0912 85.156 47.0988 85.8006 46.3519C86.4452 45.5947 87.2995 45.2161 88.3636 45.2161C88.9264 45.2161 89.397 45.3236 89.7756 45.5384C90.1542 45.7431 90.5072 46.0756 90.8346 46.536V45.431H92.4614ZM88.6706 46.6281C88.0158 46.6281 87.4991 46.8634 87.1205 47.3341C86.7521 47.8048 86.568 48.4596 86.568 49.2986C86.568 50.0967 86.7573 50.731 87.1358 51.2017C87.5246 51.6723 88.0362 51.9077 88.6706 51.9077C89.3254 51.9077 89.8421 51.6672 90.2207 51.1863C90.5993 50.6952 90.7885 50.0353 90.7885 49.2065C90.7885 48.3982 90.5993 47.7689 90.2207 47.3187C89.8523 46.8583 89.3356 46.6281 88.6706 46.6281ZM96.0953 42.3768V44.0958H94.3457V42.3768H96.0953ZM96.0953 45.431V53.3503H94.3457V45.431H96.0953ZM101.869 45.431V46.7048H100.273V50.8794C100.273 51.1249 100.278 51.2989 100.288 51.4012C100.299 51.4933 100.329 51.6007 100.381 51.7235C100.432 51.836 100.519 51.9128 100.641 51.9537C100.774 51.9946 100.954 52.0151 101.179 52.0151C101.465 52.0151 101.695 52.0049 101.869 51.9844V53.3657C101.521 53.4066 101.127 53.4271 100.687 53.4271C100.381 53.4271 100.109 53.4015 99.8741 53.3503C99.649 53.3094 99.4597 53.2583 99.3062 53.1969C99.1527 53.1355 99.0248 53.0332 98.9225 52.8899C98.8202 52.7364 98.7383 52.6137 98.677 52.5216C98.6258 52.4193 98.5849 52.2453 98.5542 51.9998C98.5337 51.7542 98.5235 51.57 98.5235 51.4472C98.5235 51.3142 98.5235 51.0891 98.5235 50.772C98.5235 50.6389 98.5235 50.5417 98.5235 50.4803V46.7048H97.2036V45.431H98.5235V43.0521H100.273V45.431H101.869ZM103.036 47.8713C103.22 46.0807 104.376 45.1854 106.504 45.1854C107.497 45.1854 108.285 45.3798 108.868 45.7686C109.461 46.1574 109.758 46.7611 109.758 47.5797V51.6007C109.758 51.8258 109.784 51.9793 109.835 52.0611C109.896 52.143 110.009 52.1839 110.172 52.1839C110.295 52.1839 110.428 52.1737 110.571 52.1532V53.381C110.121 53.4936 109.743 53.5499 109.436 53.5499C108.689 53.5499 108.259 53.2327 108.147 52.5983C107.481 53.2327 106.555 53.5499 105.369 53.5499C104.55 53.5499 103.9 53.3401 103.419 52.9206C102.939 52.4909 102.698 51.9128 102.698 51.1863C102.698 50.9612 102.724 50.7515 102.775 50.5571C102.826 50.3627 102.882 50.1939 102.944 50.0506C103.015 49.9074 103.123 49.7744 103.266 49.6516C103.419 49.5288 103.542 49.4265 103.634 49.3446C103.737 49.2628 103.895 49.186 104.11 49.1144C104.335 49.0428 104.499 48.9916 104.601 48.9609C104.714 48.92 104.903 48.8791 105.169 48.8382C105.435 48.7972 105.609 48.7717 105.691 48.7614C105.783 48.741 105.967 48.7154 106.243 48.6847C106.868 48.6028 107.292 48.5363 107.517 48.4852C107.742 48.4238 107.896 48.3368 107.978 48.2243C108.049 48.1424 108.085 47.9531 108.085 47.6564C108.085 46.8583 107.543 46.4593 106.458 46.4593C105.885 46.4593 105.466 46.5667 105.2 46.7816C104.934 46.9964 104.765 47.3597 104.693 47.8713H103.036ZM108.07 49.3753C107.937 49.4469 107.783 49.5135 107.609 49.5748C107.435 49.626 107.292 49.6618 107.18 49.6823C107.077 49.6925 106.908 49.713 106.673 49.7437C106.448 49.7744 106.3 49.7948 106.228 49.8051C106.013 49.8357 105.844 49.8664 105.722 49.8971C105.599 49.9176 105.445 49.9585 105.261 50.0199C105.087 50.0813 104.949 50.158 104.847 50.2501C104.755 50.332 104.673 50.4497 104.601 50.6031C104.53 50.7464 104.494 50.9203 104.494 51.1249C104.494 51.5035 104.617 51.7951 104.862 51.9998C105.118 52.2044 105.471 52.3067 105.921 52.3067C106.699 52.3067 107.297 52.097 107.717 51.6775C107.952 51.4421 108.07 50.9868 108.07 50.3115V49.3753ZM113.436 42.4229V53.3503H111.702V42.4229H113.436ZM119.537 47.8713C119.722 46.0807 120.878 45.1854 123.006 45.1854C123.998 45.1854 124.786 45.3798 125.369 45.7686C125.963 46.1574 126.26 46.7611 126.26 47.5797V51.6007C126.26 51.8258 126.285 51.9793 126.336 52.0611C126.398 52.143 126.51 52.1839 126.674 52.1839C126.797 52.1839 126.93 52.1737 127.073 52.1532V53.381C126.623 53.4936 126.244 53.5499 125.937 53.5499C125.19 53.5499 124.761 53.2327 124.648 52.5983C123.983 53.2327 123.057 53.5499 121.87 53.5499C121.052 53.5499 120.402 53.3401 119.921 52.9206C119.44 52.4909 119.2 51.9128 119.2 51.1863C119.2 50.9612 119.225 50.7515 119.277 50.5571C119.328 50.3627 119.384 50.1939 119.445 50.0506C119.517 49.9074 119.624 49.7744 119.768 49.6516C119.921 49.5288 120.044 49.4265 120.136 49.3446C120.238 49.2628 120.397 49.186 120.612 49.1144C120.837 49.0428 121.001 48.9916 121.103 48.9609C121.215 48.92 121.405 48.8791 121.671 48.8382C121.937 48.7972 122.111 48.7717 122.193 48.7614C122.285 48.741 122.469 48.7154 122.745 48.6847C123.369 48.6028 123.794 48.5363 124.019 48.4852C124.244 48.4238 124.397 48.3368 124.479 48.2243C124.551 48.1424 124.587 47.9531 124.587 47.6564C124.587 46.8583 124.044 46.4593 122.96 46.4593C122.387 46.4593 121.967 46.5667 121.701 46.7816C121.435 46.9964 121.267 47.3597 121.195 47.8713H119.537ZM124.571 49.3753C124.438 49.4469 124.285 49.5135 124.111 49.5748C123.937 49.626 123.794 49.6618 123.681 49.6823C123.579 49.6925 123.41 49.713 123.175 49.7437C122.95 49.7744 122.801 49.7948 122.73 49.8051C122.515 49.8357 122.346 49.8664 122.223 49.8971C122.1 49.9176 121.947 49.9585 121.763 50.0199C121.589 50.0813 121.451 50.158 121.348 50.2501C121.256 50.332 121.174 50.4497 121.103 50.6031C121.031 50.7464 120.995 50.9203 120.995 51.1249C120.995 51.5035 121.118 51.7951 121.364 51.9998C121.62 52.2044 121.973 52.3067 122.423 52.3067C123.2 52.3067 123.799 52.097 124.218 51.6775C124.454 51.4421 124.571 50.9868 124.571 50.3115V49.3753ZM135.402 45.431V52.4295C135.402 53.7903 135.11 54.7981 134.527 55.453C133.954 56.1078 132.977 56.4352 131.595 56.4352C129.426 56.4352 128.245 55.632 128.05 54.0256H129.8C129.963 54.8135 130.577 55.2074 131.641 55.2074C132.368 55.2074 132.895 55.0232 133.222 54.6549C133.56 54.2865 133.729 53.6931 133.729 52.8746V51.9384C133.156 52.8285 132.317 53.2736 131.212 53.2736C130.158 53.2736 129.319 52.9206 128.695 52.2146C128.081 51.4984 127.774 50.5366 127.774 49.3293C127.774 48.0912 128.096 47.0988 128.741 46.3519C129.385 45.5947 130.24 45.2161 131.304 45.2161C131.867 45.2161 132.337 45.3236 132.716 45.5384C133.094 45.7431 133.447 46.0756 133.775 46.536V45.431H135.402ZM131.611 46.6281C130.956 46.6281 130.439 46.8634 130.061 47.3341C129.692 47.8048 129.508 48.4596 129.508 49.2986C129.508 50.0967 129.697 50.731 130.076 51.2017C130.465 51.6723 130.976 51.9077 131.611 51.9077C132.266 51.9077 132.782 51.6672 133.161 51.1863C133.539 50.6952 133.729 50.0353 133.729 49.2065C133.729 48.3982 133.539 47.7689 133.161 47.3187C132.793 46.8583 132.276 46.6281 131.611 46.6281ZM144.33 50.8794C144.136 51.7388 143.711 52.409 143.057 52.8899C142.412 53.3708 141.64 53.6113 140.739 53.6113C139.542 53.6113 138.59 53.2276 137.884 52.4602C137.189 51.6826 136.841 50.6901 136.841 49.4828C136.841 48.2447 137.199 47.2215 137.915 46.4132C138.642 45.6049 139.562 45.2008 140.678 45.2008C141.834 45.2008 142.75 45.5998 143.425 46.3979C144.1 47.1857 144.438 48.2652 144.438 49.6362V49.8204H138.59C138.611 50.6185 138.81 51.2375 139.189 51.6775C139.568 52.1072 140.095 52.3221 140.77 52.3221C141.251 52.3221 141.64 52.2095 141.936 51.9844C142.243 51.7491 142.484 51.3807 142.658 50.8794H144.33ZM142.688 48.654C142.637 47.9889 142.427 47.4671 142.059 47.0885C141.701 46.6997 141.235 46.5053 140.662 46.5053C140.089 46.5053 139.624 46.6895 139.266 47.0578C138.918 47.4262 138.703 47.9582 138.621 48.654H142.688ZM147.441 45.431V46.5974C148.075 45.6766 148.95 45.2161 150.065 45.2161C150.966 45.2161 151.636 45.4617 152.076 45.9528C152.526 46.4439 152.751 47.1499 152.751 48.0708V53.3503H151.001V48.7461C151.001 48.4289 150.986 48.168 150.955 47.9633C150.925 47.7485 150.858 47.5336 150.756 47.3187C150.664 47.1039 150.51 46.9453 150.296 46.843C150.081 46.7304 149.804 46.6741 149.467 46.6741C148.178 46.6741 147.533 47.4773 147.533 49.0837V53.3503H145.783V45.431H147.441ZM161.763 50.3576C161.641 51.3296 161.252 52.1072 160.597 52.6904C159.942 53.2634 159.119 53.5499 158.126 53.5499C156.939 53.5499 155.993 53.1764 155.287 52.4295C154.581 51.6723 154.228 50.685 154.228 49.4674C154.228 48.1577 154.581 47.1192 155.287 46.3519C156.003 45.5742 156.965 45.1854 158.172 45.1854C159.185 45.1854 159.999 45.4412 160.612 45.9528C161.237 46.4644 161.6 47.1755 161.702 48.0861H159.968C159.866 47.5848 159.661 47.2011 159.354 46.9351C159.047 46.669 158.658 46.536 158.188 46.536C157.512 46.536 156.98 46.7918 156.591 47.3034C156.203 47.8048 156.008 48.4954 156.008 49.3753C156.008 50.2552 156.192 50.9408 156.561 51.4319C156.939 51.923 157.461 52.1686 158.126 52.1686C158.648 52.1686 159.073 52.0151 159.4 51.7082C159.738 51.391 159.952 50.9408 160.045 50.3576H161.763ZM170.092 45.431L167.161 53.1969C167.13 53.2685 167.074 53.4168 166.992 53.6419C166.91 53.8773 166.854 54.0359 166.823 54.1177C166.792 54.1996 166.731 54.3428 166.639 54.5475C166.557 54.7521 166.49 54.8953 166.439 54.9772C166.388 55.059 166.311 55.1818 166.209 55.3455C166.107 55.5092 166.01 55.6269 165.918 55.6985C165.836 55.7701 165.728 55.8571 165.595 55.9594C165.472 56.072 165.345 56.1487 165.212 56.1896C165.079 56.2408 164.925 56.2817 164.751 56.3124C164.587 56.3533 164.408 56.3738 164.214 56.3738C163.887 56.3738 163.482 56.3431 163.001 56.2817V54.8084C163.37 54.88 163.677 54.9158 163.922 54.9158C164.045 54.9158 164.158 54.8953 164.26 54.8544C164.362 54.8237 164.454 54.7623 164.536 54.6702C164.618 54.5884 164.69 54.5065 164.751 54.4247C164.812 54.353 164.869 54.2456 164.92 54.1024C164.981 53.9694 165.027 53.8619 165.058 53.7801C165.089 53.7085 165.13 53.5908 165.181 53.4271C165.232 53.2634 165.263 53.1611 165.273 53.1201L162.234 45.431H164.153L166.271 51.2631L168.266 45.431H170.092Z" fill="white"/>
</svg>
